<svg xmlns="http://www.w3.org/2000/svg" viewBox="0 0 480 270" width="480" height="270">
  <rect width="480" height="270" fill="#fef3c7"/>
  <circle cx="80" cy="58" r="26" fill="#f59e0b"/>
  <g fill="#f59e0b" opacity="0.85">
    <circle cx="130" cy="40" r="4"/>
    <circle cx="340" cy="50" r="5"/>
    <circle cx="390" cy="90" r="3"/>
    <circle cx="60" cy="110" r="3"/>
    <circle cx="410" cy="130" r="4"/>
  </g>
  <rect x="0" y="168" width="480" height="102" fill="#0ea5e9"/>
  <path d="M40 5 Q240 -15 440 5" stroke="#38bdf8" stroke-width="3" fill="none" opacity="0.5" transform="translate(0,185)"/>
  <path d="M55 196 Q240 214 425 196 L400 226 Q240 240 80 226 Z" fill="#92400e"/>
  <g fill="#fde68a">
    <circle cx="110" cy="201" r="6"/>
    <circle cx="150" cy="198" r="6"/>
    <circle cx="190" cy="196" r="6"/>
    <circle cx="230" cy="195" r="6"/>
    <circle cx="270" cy="196" r="6"/>
    <circle cx="310" cy="198" r="6"/>
    <circle cx="350" cy="201" r="6"/>
  </g>
  <text x="240" y="252" text-anchor="middle" font-family="system-ui, sans-serif" font-size="14" fill="#7c2d12" font-weight="600">Boun Souang Heua Celebrations</text>
</svg>
